<?xml version="1.0" standalone="no"?>
<!DOCTYPE svg PUBLIC "-//W3C//DTD SVG 20010904//EN"
 "http://www.w3.org/TR/2001/REC-SVG-20010904/DTD/svg10.dtd">
<svg version="1.0" xmlns="http://www.w3.org/2000/svg"
 width="500.000000pt" height="500.000000pt" viewBox="0 0 500.000000 500.000000"
 preserveAspectRatio="xMidYMid meet">

<g transform="translate(0.000000,500.000000) scale(0.100000,-0.100000)"
fill="#000000" stroke="none">
<path d="M2365 4074 c-298 -43 -498 -116 -719 -264 -350 -234 -610 -618 -695
-1025 -104 -508 25 -1028 348 -1403 83 -96 238 -227 353 -298 l88 -54 130 0
130 0 0 115 0 115 38 -16 c109 -48 241 -61 301 -29 35 17 48 53 31 84 -9 18
-20 21 -79 21 -227 0 -419 158 -504 415 -17 51 -20 97 -24 296 l-5 236 93 6
c50 4 114 7 141 7 l48 0 0 -62 c1 -72 25 -151 60 -196 39 -47 112 -84 175 -85
l53 -2 3 -120 c4 -104 7 -127 29 -170 32 -62 76 -85 111 -56 21 17 22 21 11
76 -7 32 -12 114 -12 181 l0 123 51 -34 c70 -48 294 -114 342 -101 34 8 67 40
67 65 0 41 -32 62 -125 81 -169 34 -253 82 -271 155 -10 41 5 96 35 126 51 50
127 59 294 34 231 -35 343 -98 409 -233 32 -64 33 -71 32 -182 0 -95 -4 -125
-22 -171 -52 -131 -162 -260 -283 -332 -103 -61 -205 -89 -334 -93 -60 -2
-115 -3 -122 -4 -16 0 -26 -35 -18 -61 4 -12 27 -30 53 -42 61 -27 167 -26
286 2 48 12 92 21 98 21 8 0 9 -28 5 -85 l-6 -85 127 0 128 0 119 79 c157 105
247 181 345 293 344 394 480 916 370 1418 -51 237 -165 471 -326 672 -52 65
-53 67 -52 130 3 189 -179 327 -356 268 -32 -10 -42 -8 -118 28 -137 64 -274
108 -428 137 -83 15 -345 28 -405 19z m1106 -335 c38 -27 59 -68 59 -115 0
-20 -27 -157 -60 -303 -88 -396 -134 -675 -149 -904 -5 -76 -12 -141 -14 -143
-3 -3 -29 13 -58 35 -30 23 -88 53 -129 68 -41 14 -85 30 -97 34 -14 5 -20 14
-17 26 2 10 15 101 29 201 14 101 37 241 51 310 29 148 159 684 175 725 6 15
27 41 46 57 28 25 42 30 84 30 36 0 60 -6 80 -21z m-897 -78 c24 -46 41 -61
71 -61 8 0 26 -5 42 -11 l27 -10 -43 -40 c-44 -41 -45 -47 -25 -121 7 -25 -14
-23 -68 6 l-46 24 -38 -24 c-56 -34 -68 -32 -60 12 4 19 9 41 12 49 3 7 -11
31 -30 53 -20 22 -36 44 -36 49 0 11 46 23 85 23 16 0 27 12 45 50 13 28 27
50 32 50 4 0 19 -22 32 -49z m-661 -123 c54 -38 60 -61 87 -352 32 -348 51
-740 37 -763 -6 -9 -46 -13 -143 -13 l-134 0 0 38 c0 76 -21 425 -40 673 -27
351 -27 351 13 395 49 54 121 63 180 22z m933 -563 c44 -29 64 -73 64 -144 0
-53 -28 -382 -33 -388 -1 -1 -64 -3 -140 -5 -87 -2 -137 1 -137 7 1 89 24 410
31 440 26 97 134 143 215 90z m-426 -20 c48 -46 53 -83 45 -349 l-7 -239 -31
-60 c-25 -48 -33 -75 -36 -134 -3 -71 -5 -76 -35 -94 -59 -36 -131 -16 -160
45 -14 29 -16 81 -16 388 0 326 2 356 20 395 27 60 71 85 138 80 41 -3 59 -10
82 -32z"/>
</g>
</svg>
